<?xml version="1.0" encoding="utf-8"?>
<!-- Generator: Adobe Illustrator 24.0.2, SVG Export Plug-In . SVG Version: 6.00 Build 0)  -->
<svg version="1.1" id="Layer_1" xmlns="http://www.w3.org/2000/svg" xmlns:xlink="http://www.w3.org/1999/xlink" x="0px" y="0px"
	 viewBox="0 0 672 640" style="enable-background:new 0 0 672 640;" xml:space="preserve">
<style type="text/css">
	.st0{fill:#FFFFFF;}
</style>
<path class="st0" d="M597.9,4.6h-46.7c4.6,11.7,2.2,25-6.2,34.3L317.8,291.1L250.5,4.6h-46.7c0,27.4,2.5,68.1-5.1,95.2l-71.6,256.8
	h47.2l60.9-218.4l45.6,194L142.7,485.1l-51.4,0c-22.2,53.6-43,105.1-81,147.3l-6.2,6.8h61.2L577.3,70.9l75.6,191.9h6.3L597.9,4.6z"
	/>
<path class="st0" d="M611.7,213.7l-22.1-43L427,352.4v6.2l0,0.2c17,0,44.5,15.6,50.4,40.8l56.4,239.7h46.7l-72.7-308.9L611.7,213.7z
	"/>
</svg>
